<?xml version="1.0" encoding="UTF-8" standalone="no"?>
<!DOCTYPE svg PUBLIC "-//W3C//DTD SVG 1.1//EN"
 "http://www.w3.org/Graphics/SVG/1.1/DTD/svg11.dtd">
<!-- Generated by graphviz version 2.26.3 (20100126.1600)
 -->
<!-- Title: MerkleTree1 Pages: 1 -->
<svg width="774pt" height="332pt"
 viewBox="0.00 0.00 774.00 332.00" xmlns="http://www.w3.org/2000/svg" xmlns:xlink="http://www.w3.org/1999/xlink">
<g id="graph1" class="graph" transform="scale(1 1) rotate(0) translate(4 328)">
<title>MerkleTree1</title>
<polygon fill="white" stroke="white" points="-4,5 -4,-328 771,-328 771,5 -4,5"/>
<!-- a5 -->
<g id="node1" class="node"><title>a5</title>
<polygon fill="none" stroke="black" points="73,-36 7,-36 7,-1.06581e-14 73,-0 73,-36"/>
<text text-anchor="middle" x="40" y="-13.9" font-family="Times Roman,serif" font-size="14.00">H(Y[0])</text>
</g>
<!-- b5 -->
<g id="node2" class="node"><title>b5</title>
<polygon fill="none" stroke="black" points="171,-36 105,-36 105,-1.06581e-14 171,-0 171,-36"/>
<text text-anchor="middle" x="138" y="-13.9" font-family="Times Roman,serif" font-size="14.00">H(Y[1])</text>
</g>
<!-- c5 -->
<g id="node3" class="node"><title>c5</title>
<polygon fill="none" stroke="black" points="269,-36 203,-36 203,-1.06581e-14 269,-0 269,-36"/>
<text text-anchor="middle" x="236" y="-13.9" font-family="Times Roman,serif" font-size="14.00">H(Y[2])</text>
</g>
<!-- d5 -->
<g id="node4" class="node"><title>d5</title>
<polygon fill="none" stroke="black" points="367,-36 301,-36 301,-1.06581e-14 367,-0 367,-36"/>
<text text-anchor="middle" x="334" y="-13.9" font-family="Times Roman,serif" font-size="14.00">H(Y[3])</text>
</g>
<!-- e5 -->
<g id="node5" class="node"><title>e5</title>
<polygon fill="none" stroke="black" points="465,-36 399,-36 399,-1.06581e-14 465,-0 465,-36"/>
<text text-anchor="middle" x="432" y="-13.9" font-family="Times Roman,serif" font-size="14.00">H(Y[4])</text>
</g>
<!-- f5 -->
<g id="node6" class="node"><title>f5</title>
<polygon fill="none" stroke="black" points="563,-36 497,-36 497,-1.06581e-14 563,-0 563,-36"/>
<text text-anchor="middle" x="530" y="-13.9" font-family="Times Roman,serif" font-size="14.00">H(Y[5])</text>
</g>
<!-- g5 -->
<g id="node7" class="node"><title>g5</title>
<polygon fill="none" stroke="black" points="661,-36 595,-36 595,-1.06581e-14 661,-0 661,-36"/>
<text text-anchor="middle" x="628" y="-13.9" font-family="Times Roman,serif" font-size="14.00">H(Y[6])</text>
</g>
<!-- h5 -->
<g id="node8" class="node"><title>h5</title>
<polygon fill="none" stroke="black" points="759,-36 693,-36 693,-1.06581e-14 759,-0 759,-36"/>
<text text-anchor="middle" x="726" y="-13.9" font-family="Times Roman,serif" font-size="14.00">H(Y[7])</text>
</g>
<!-- a4 -->
<g id="node9" class="node"><title>a4</title>
<ellipse fill="none" stroke="black" cx="40" cy="-90" rx="39.8056" ry="18"/>
<text text-anchor="middle" x="40" y="-85.9" font-family="Times Roman,serif" font-size="14.00">a[0,0]</text>
</g>
<!-- a4&#45;&gt;a5 -->
<g id="edge5" class="edge"><title>a4&#45;&gt;a5</title>
<path fill="none" stroke="black" d="M40,-61.5726C40,-53.1084 40,-44.0593 40,-36.4133"/>
<polygon fill="black" stroke="black" points="36.5001,-61.8313 40,-71.8314 43.5001,-61.8314 36.5001,-61.8313"/>
</g>
<!-- b4 -->
<g id="node10" class="node"><title>b4</title>
<ellipse fill="none" stroke="black" cx="138" cy="-90" rx="39.8056" ry="18"/>
<text text-anchor="middle" x="138" y="-85.9" font-family="Times Roman,serif" font-size="14.00">a[0,1]</text>
</g>
<!-- b4&#45;&gt;b5 -->
<g id="edge8" class="edge"><title>b4&#45;&gt;b5</title>
<path fill="none" stroke="black" d="M138,-61.5726C138,-53.1084 138,-44.0593 138,-36.4133"/>
<polygon fill="black" stroke="black" points="134.5,-61.8313 138,-71.8314 141.5,-61.8314 134.5,-61.8313"/>
</g>
<!-- c4 -->
<g id="node11" class="node"><title>c4</title>
<ellipse fill="none" stroke="black" cx="236" cy="-90" rx="39.8056" ry="18"/>
<text text-anchor="middle" x="236" y="-85.9" font-family="Times Roman,serif" font-size="14.00">a[0,2]</text>
</g>
<!-- c4&#45;&gt;c5 -->
<g id="edge12" class="edge"><title>c4&#45;&gt;c5</title>
<path fill="none" stroke="black" d="M236,-61.5726C236,-53.1084 236,-44.0593 236,-36.4133"/>
<polygon fill="black" stroke="black" points="232.5,-61.8313 236,-71.8314 239.5,-61.8314 232.5,-61.8313"/>
</g>
<!-- d4 -->
<g id="node12" class="node"><title>d4</title>
<ellipse fill="none" stroke="black" cx="334" cy="-90" rx="39.8056" ry="18"/>
<text text-anchor="middle" x="334" y="-85.9" font-family="Times Roman,serif" font-size="14.00">a[0,3]</text>
</g>
<!-- d4&#45;&gt;d5 -->
<g id="edge15" class="edge"><title>d4&#45;&gt;d5</title>
<path fill="none" stroke="black" d="M334,-61.5726C334,-53.1084 334,-44.0593 334,-36.4133"/>
<polygon fill="black" stroke="black" points="330.5,-61.8313 334,-71.8314 337.5,-61.8314 330.5,-61.8313"/>
</g>
<!-- e4 -->
<g id="node13" class="node"><title>e4</title>
<ellipse fill="none" stroke="black" cx="432" cy="-90" rx="39.8056" ry="18"/>
<text text-anchor="middle" x="432" y="-85.9" font-family="Times Roman,serif" font-size="14.00">a[0,4]</text>
</g>
<!-- e4&#45;&gt;e5 -->
<g id="edge20" class="edge"><title>e4&#45;&gt;e5</title>
<path fill="none" stroke="black" d="M432,-61.5726C432,-53.1084 432,-44.0593 432,-36.4133"/>
<polygon fill="black" stroke="black" points="428.5,-61.8313 432,-71.8314 435.5,-61.8314 428.5,-61.8313"/>
</g>
<!-- f4 -->
<g id="node14" class="node"><title>f4</title>
<ellipse fill="none" stroke="black" cx="530" cy="-90" rx="39.8056" ry="18"/>
<text text-anchor="middle" x="530" y="-85.9" font-family="Times Roman,serif" font-size="14.00">a[0,5]</text>
</g>
<!-- f4&#45;&gt;f5 -->
<g id="edge23" class="edge"><title>f4&#45;&gt;f5</title>
<path fill="none" stroke="black" d="M530,-61.5726C530,-53.1084 530,-44.0593 530,-36.4133"/>
<polygon fill="black" stroke="black" points="526.5,-61.8313 530,-71.8314 533.5,-61.8314 526.5,-61.8313"/>
</g>
<!-- g4 -->
<g id="node15" class="node"><title>g4</title>
<ellipse fill="none" stroke="black" cx="628" cy="-90" rx="39.8056" ry="18"/>
<text text-anchor="middle" x="628" y="-85.9" font-family="Times Roman,serif" font-size="14.00">a[0,6]</text>
</g>
<!-- g4&#45;&gt;g5 -->
<g id="edge27" class="edge"><title>g4&#45;&gt;g5</title>
<path fill="none" stroke="black" d="M628,-61.5726C628,-53.1084 628,-44.0593 628,-36.4133"/>
<polygon fill="black" stroke="black" points="624.5,-61.8313 628,-71.8314 631.5,-61.8314 624.5,-61.8313"/>
</g>
<!-- h4 -->
<g id="node16" class="node"><title>h4</title>
<ellipse fill="none" stroke="black" cx="726" cy="-90" rx="39.8056" ry="18"/>
<text text-anchor="middle" x="726" y="-85.9" font-family="Times Roman,serif" font-size="14.00">a[0,7]</text>
</g>
<!-- h4&#45;&gt;h5 -->
<g id="edge30" class="edge"><title>h4&#45;&gt;h5</title>
<path fill="none" stroke="black" d="M726,-61.5726C726,-53.1084 726,-44.0593 726,-36.4133"/>
<polygon fill="black" stroke="black" points="722.5,-61.8313 726,-71.8314 729.5,-61.8314 722.5,-61.8313"/>
</g>
<!-- a3 -->
<g id="node17" class="node"><title>a3</title>
<ellipse fill="none" stroke="black" cx="138" cy="-162" rx="39.8056" ry="18"/>
<text text-anchor="middle" x="138" y="-157.9" font-family="Times Roman,serif" font-size="14.00">a[1,0]</text>
</g>
<!-- a3&#45;&gt;a4 -->
<g id="edge4" class="edge"><title>a3&#45;&gt;a4</title>
<path fill="none" stroke="black" d="M108.623,-140.417C93.3722,-129.212 75.0837,-115.776 61.223,-105.592"/>
<polygon fill="black" stroke="black" points="106.604,-143.277 116.735,-146.377 110.749,-137.636 106.604,-143.277"/>
</g>
<!-- a3&#45;&gt;b4 -->
<g id="edge7" class="edge"><title>a3&#45;&gt;b4</title>
<path fill="none" stroke="black" d="M138,-133.573C138,-125.108 138,-116.059 138,-108.413"/>
<polygon fill="black" stroke="black" points="134.5,-133.831 138,-143.831 141.5,-133.831 134.5,-133.831"/>
</g>
<!-- b3 -->
<g id="node18" class="node"><title>b3</title>
<ellipse fill="none" stroke="black" cx="309" cy="-162" rx="39.8056" ry="18"/>
<text text-anchor="middle" x="309" y="-157.9" font-family="Times Roman,serif" font-size="14.00">a[1,1]</text>
</g>
<!-- b3&#45;&gt;c4 -->
<g id="edge11" class="edge"><title>b3&#45;&gt;c4</title>
<path fill="none" stroke="black" d="M284.774,-138.106C274.306,-127.781 262.313,-115.953 252.839,-106.609"/>
<polygon fill="black" stroke="black" points="282.491,-140.771 292.069,-145.301 287.407,-135.787 282.491,-140.771"/>
</g>
<!-- b3&#45;&gt;d4 -->
<g id="edge14" class="edge"><title>b3&#45;&gt;d4</title>
<path fill="none" stroke="black" d="M318.534,-134.543C321.641,-125.594 325.008,-115.897 327.805,-107.843"/>
<polygon fill="black" stroke="black" points="315.154,-133.607 315.18,-144.202 321.766,-135.904 315.154,-133.607"/>
</g>
<!-- c3 -->
<g id="node19" class="node"><title>c3</title>
<ellipse fill="none" stroke="black" cx="456" cy="-162" rx="39.8056" ry="18"/>
<text text-anchor="middle" x="456" y="-157.9" font-family="Times Roman,serif" font-size="14.00">a[1,2]</text>
</g>
<!-- c3&#45;&gt;e4 -->
<g id="edge19" class="edge"><title>c3&#45;&gt;e4</title>
<path fill="none" stroke="black" d="M446.755,-134.266C443.807,-125.42 440.623,-115.87 437.971,-107.913"/>
<polygon fill="black" stroke="black" points="443.461,-135.451 449.944,-143.831 450.102,-133.238 443.461,-135.451"/>
</g>
<!-- c3&#45;&gt;f4 -->
<g id="edge22" class="edge"><title>c3&#45;&gt;f4</title>
<path fill="none" stroke="black" d="M480.247,-138.408C490.964,-127.981 503.307,-115.971 513.019,-106.522"/>
<polygon fill="black" stroke="black" points="477.518,-136.18 472.792,-145.662 482.4,-141.197 477.518,-136.18"/>
</g>
<!-- d3 -->
<g id="node20" class="node"><title>d3</title>
<ellipse fill="none" stroke="black" cx="628" cy="-162" rx="39.8056" ry="18"/>
<text text-anchor="middle" x="628" y="-157.9" font-family="Times Roman,serif" font-size="14.00">a[1,3]</text>
</g>
<!-- d3&#45;&gt;g4 -->
<g id="edge26" class="edge"><title>d3&#45;&gt;g4</title>
<path fill="none" stroke="black" d="M628,-133.573C628,-125.108 628,-116.059 628,-108.413"/>
<polygon fill="black" stroke="black" points="624.5,-133.831 628,-143.831 631.5,-133.831 624.5,-133.831"/>
</g>
<!-- d3&#45;&gt;h4 -->
<g id="edge29" class="edge"><title>d3&#45;&gt;h4</title>
<path fill="none" stroke="black" d="M657.377,-140.417C672.628,-129.212 690.916,-115.776 704.777,-105.592"/>
<polygon fill="black" stroke="black" points="655.251,-137.636 649.265,-146.377 659.396,-143.277 655.251,-137.636"/>
</g>
<!-- a2 -->
<g id="node21" class="node"><title>a2</title>
<ellipse fill="none" stroke="black" cx="309" cy="-234" rx="39.8056" ry="18"/>
<text text-anchor="middle" x="309" y="-229.9" font-family="Times Roman,serif" font-size="14.00">a[2,0]</text>
</g>
<!-- a2&#45;&gt;a3 -->
<g id="edge3" class="edge"><title>a2&#45;&gt;a3</title>
<path fill="none" stroke="black" d="M270.321,-217.714C239.064,-204.553 195.735,-186.31 167.298,-174.336"/>
<polygon fill="black" stroke="black" points="269.029,-220.968 279.604,-221.623 271.746,-214.516 269.029,-220.968"/>
</g>
<!-- a2&#45;&gt;b3 -->
<g id="edge10" class="edge"><title>a2&#45;&gt;b3</title>
<path fill="none" stroke="black" d="M309,-205.573C309,-197.108 309,-188.059 309,-180.413"/>
<polygon fill="black" stroke="black" points="305.5,-205.831 309,-215.831 312.5,-205.831 305.5,-205.831"/>
</g>
<!-- b2 -->
<g id="node22" class="node"><title>b2</title>
<ellipse fill="none" stroke="black" cx="456" cy="-234" rx="39.8056" ry="18"/>
<text text-anchor="middle" x="456" y="-229.9" font-family="Times Roman,serif" font-size="14.00">a[2,1]</text>
</g>
<!-- b2&#45;&gt;c3 -->
<g id="edge18" class="edge"><title>b2&#45;&gt;c3</title>
<path fill="none" stroke="black" d="M456,-205.573C456,-197.108 456,-188.059 456,-180.413"/>
<polygon fill="black" stroke="black" points="452.5,-205.831 456,-215.831 459.5,-205.831 452.5,-205.831"/>
</g>
<!-- b2&#45;&gt;d3 -->
<g id="edge25" class="edge"><title>b2&#45;&gt;d3</title>
<path fill="none" stroke="black" d="M494.905,-217.714C526.345,-204.553 569.927,-186.31 598.531,-174.336"/>
<polygon fill="black" stroke="black" points="493.441,-214.533 485.568,-221.623 496.144,-220.99 493.441,-214.533"/>
</g>
<!-- a1 -->
<g id="node23" class="node"><title>a1</title>
<ellipse fill="none" stroke="black" cx="382" cy="-306" rx="39.8056" ry="18"/>
<text text-anchor="middle" x="382" y="-301.9" font-family="Times Roman,serif" font-size="14.00">a[3,0]</text>
</g>
<!-- a1&#45;&gt;a2 -->
<g id="edge2" class="edge"><title>a1&#45;&gt;a2</title>
<path fill="none" stroke="black" d="M357.774,-282.106C347.306,-271.781 335.313,-259.953 325.839,-250.609"/>
<polygon fill="black" stroke="black" points="355.491,-284.771 365.069,-289.301 360.407,-279.787 355.491,-284.771"/>
</g>
<!-- a1&#45;&gt;b2 -->
<g id="edge17" class="edge"><title>a1&#45;&gt;b2</title>
<path fill="none" stroke="black" d="M406.247,-282.408C416.964,-271.981 429.307,-259.971 439.019,-250.522"/>
<polygon fill="black" stroke="black" points="403.518,-280.18 398.792,-289.662 408.4,-285.197 403.518,-280.18"/>
</g>
</g>
</svg>
